<mxfile host="65bd71144e">
    <diagram id="V9gd7TdCu7WNvEiHtMq6" name="Page-1">
        <mxGraphModel dx="834" dy="1207" grid="1" gridSize="10" guides="1" tooltips="1" connect="1" arrows="1" fold="1" page="1" pageScale="1" pageWidth="850" pageHeight="1100" math="0" shadow="0">
            <root>
                <mxCell id="0"/>
                <mxCell id="1" parent="0"/>
                <mxCell id="2" value="Preamble" style="rounded=0;whiteSpace=wrap;html=1;shadow=1;" vertex="1" parent="1">
                    <mxGeometry x="10" y="10" width="90" height="40" as="geometry"/>
                </mxCell>
                <mxCell id="3" value="Data" style="rounded=0;whiteSpace=wrap;html=1;shadow=1;" vertex="1" parent="1">
                    <mxGeometry x="100" y="10" width="200" height="40" as="geometry"/>
                </mxCell>
                <mxCell id="4" value="ECC" style="rounded=0;whiteSpace=wrap;html=1;shadow=1;" vertex="1" parent="1">
                    <mxGeometry x="300" y="10" width="70" height="40" as="geometry"/>
                </mxCell>
            </root>
        </mxGraphModel>
    </diagram>
</mxfile>